# xmcd
#
# Track frame offsets:
#  150
#  19537
#  37115
#  52861
#  67587
#  80143
#  102294
#  118303
#  134381
#  148109
#  168559
#
# Disc length: 2560 seconds
#
# Revision: 0
# Processed by: cddbd v1.5.2PL0 Copyright (c) Steve Scherf et al.
# Submitted via: AltoMP3_Maker 3.0
#
DISCID=9609fe0b
DTITLE=Ultraviolet - Dos
DYEAR=1900
DGENRE=
TTITLE0=Feel me, heal me and touch me
TTITLE1=The best part of me
TTITLE2=Another day in the week
TTITLE3=This is what pain is for
TTITLE4=Electronic love machine
TTITLE5=Stage 2.0
TTITLE6=Colder
TTITLE7=BeLIEve
TTITLE8=No rejection
TTITLE9=To suffer your pain
TTITLE10=The speed of love
EXTD=
EXTT0=
EXTT1=
EXTT2=
EXTT3=
EXTT4=
EXTT5=
EXTT6=
EXTT7=
EXTT8=
EXTT9=
EXTT10=
PLAYORDER=
